<svg xmlns="http://www.w3.org/2000/svg" xmlns:xlink="http://www.w3.org/1999/xlink" version="1.1" x="0px" y="0px" viewBox="0 0 100 100" enable-background="new 0 0 100 100" xml:space="preserve"><path fill="#fff" d="M60.146,66.281c-1.173-1.172-3.07-1.172-4.242,0L53,69.186v-9.279c0-1.658-1.344-3-3-3s-3,1.342-3,3v9.281l-2.906-2.906  c-1.172-1.172-3.069-1.172-4.241,0c-1.173,1.172-1.173,3.072,0,4.242l8.025,8.023c0.139,0.141,0.292,0.264,0.456,0.375  c0.038,0.023,0.078,0.039,0.116,0.063c0.128,0.076,0.26,0.152,0.4,0.211c0.054,0.023,0.115,0.033,0.172,0.055  c0.126,0.043,0.254,0.09,0.388,0.117c0.194,0.041,0.39,0.061,0.592,0.061s0.398-0.02,0.592-0.061  c0.137-0.027,0.265-0.074,0.391-0.119c0.056-0.021,0.116-0.031,0.17-0.053c0.142-0.059,0.275-0.137,0.406-0.217  c0.035-0.021,0.073-0.035,0.109-0.059c0.164-0.111,0.316-0.234,0.456-0.375l8.024-8.023C61.318,69.352,61.318,67.451,60.146,66.281z   M44.092,33.719l2.906-2.906v9.283c0,1.658,1.344,3,3,3s3-1.342,3-3v-9.283l2.904,2.906c0.586,0.586,1.354,0.879,2.122,0.879  c0.768,0,1.536-0.293,2.122-0.879c1.172-1.17,1.172-3.07,0-4.241l-8.024-8.023c-0.138-0.141-0.292-0.266-0.456-0.375  c-0.036-0.023-0.074-0.037-0.11-0.061c-0.13-0.08-0.264-0.154-0.405-0.215c-0.055-0.023-0.114-0.035-0.17-0.053  c-0.126-0.043-0.254-0.092-0.391-0.119c-0.193-0.041-0.39-0.061-0.592-0.061s-0.397,0.02-0.592,0.061  c-0.134,0.027-0.262,0.074-0.388,0.117c-0.057,0.02-0.118,0.031-0.173,0.055c-0.14,0.059-0.271,0.133-0.399,0.211  c-0.038,0.023-0.078,0.039-0.116,0.063c-0.164,0.109-0.316,0.236-0.456,0.375l-8.025,8.023c-1.173,1.169-1.173,3.069,0,4.241  C41.021,34.889,42.92,34.891,44.092,33.719z M69.185,47.014h-9.28c-1.656,0-3,1.342-3,3c0,1.658,1.344,3,3,3h9.28L66.28,55.92  c-1.172,1.172-1.172,3.072,0,4.242c0.586,0.586,1.354,0.877,2.122,0.877c0.768,0,1.536-0.291,2.122-0.877l8.023-8.027  c0.28-0.277,0.502-0.611,0.654-0.982c0.006-0.016,0.008-0.031,0.014-0.045c0.133-0.34,0.212-0.708,0.212-1.093  c0-0.387-0.079-0.754-0.212-1.094c-0.006-0.014-0.008-0.031-0.014-0.045c-0.152-0.371-0.376-0.705-0.654-0.984l-8.023-8.023  c-1.172-1.172-3.07-1.172-4.242,0c-1.172,1.17-1.172,3.07,0,4.242L69.185,47.014z M30.814,53.014h9.279c1.656,0,3-1.342,3-3  c0-1.658-1.344-3-3-3h-9.279l2.903-2.904c1.172-1.17,1.172-3.072,0-4.242c-1.172-1.172-3.069-1.172-4.241,0l-8.024,8.023  c-0.28,0.279-0.502,0.613-0.654,0.982c-0.006,0.016-0.008,0.033-0.014,0.047c-0.132,0.34-0.212,0.705-0.212,1.092l0,0  c0,0.387,0.08,0.753,0.212,1.093c0.006,0.014,0.008,0.029,0.014,0.043c0.152,0.371,0.376,0.707,0.654,0.984l8.024,8.027  c0.586,0.586,1.354,0.877,2.122,0.877c0.768,0,1.535-0.291,2.121-0.877c1.173-1.17,1.173-3.07,0-4.242L30.814,53.014z"></path></svg>